<svg width="20" height="20" viewBox="0 0 20 20" fill="none" xmlns="http://www.w3.org/2000/svg">
<g clip-path="url(#clip0_10441_543)">
<path d="M1.02082 10.4566C0.672911 6.3237 4.73368 3.05113 9.58182 3.56946C9.69973 3.58197 9.72855 3.77318 9.61181 3.79487C5.65182 4.53145 4.42292 10.6352 1.54515 10.8202C1.28947 10.8367 1.04305 10.7207 1.02082 10.4566Z" fill="#EB8B2A"/>
<path d="M1.02082 10.4566C1.03072 10.574 1.08643 10.6605 1.16601 10.7207C1.73191 11.0588 2.69108 10.08 3.32571 8.0367C4.25653 5.03942 7.10525 3.63399 9.58182 3.56946C4.73368 3.05113 0.672911 6.3237 1.02082 10.4566Z" fill="#EB8B2A"/>
<path d="M10.136 18.9784C6.14327 19.3386 2.98165 15.1353 3.48241 10.117C3.49455 9.99493 3.67917 9.96516 3.70012 10.0859C4.41173 14.1849 10.3086 15.4569 10.4873 18.4357C10.5032 18.7004 10.3912 18.9554 10.136 18.9784Z" fill="#EB8B2A"/>
<path d="M10.136 18.9784C10.2494 18.9682 10.333 18.9104 10.3912 18.828C10.7178 18.2422 9.77215 17.2494 7.79818 16.5926C4.90253 15.629 3.54475 12.6805 3.48241 10.117C2.98165 15.1353 6.14327 19.3386 10.136 18.9784Z" fill="#EB8B2A"/>
<path d="M18.3688 9.54316C18.7167 13.6761 14.6559 16.9486 9.80777 16.4303C9.68985 16.4177 9.66109 16.2266 9.77778 16.2049C13.7378 15.4683 14.9667 9.36458 17.8444 9.17952C18.1001 9.16309 18.3465 9.27902 18.3688 9.54316Z" fill="#EB8B2A"/>
<path d="M18.3688 9.54316C18.3589 9.4257 18.3032 9.3393 18.2235 9.27908C17.6575 8.94098 16.6984 9.91983 16.0638 11.9631C15.1329 14.9604 12.2843 16.3658 9.80777 16.4303C14.6559 16.9486 18.7167 13.6761 18.3688 9.54316Z" fill="#EB8B2A"/>
<path d="M9.25363 1.02155C13.2464 0.661431 16.408 4.86472 15.9072 9.88301C15.8951 10.0051 15.7104 10.0349 15.6895 9.91411C14.9778 5.81508 9.08105 4.54303 8.90232 1.56434C8.88645 1.29963 8.99845 1.04456 9.25363 1.02155Z" fill="#EB8B2A"/>
<path d="M9.25363 1.02155C9.14016 1.03179 9.05654 1.0894 8.99836 1.17184C8.67173 1.75759 9.61744 2.75043 11.5914 3.40733C14.487 4.37083 15.8448 7.31958 15.9072 9.88301C16.408 4.86472 13.2464 0.661431 9.25363 1.02155Z" fill="#EB8B2A"/>
</g>
<defs>
<clipPath id="clip0_10441_543">
<rect width="20" height="20" fill="white"/>
</clipPath>
</defs>
</svg>
